<svg width="32" height="32" viewBox="0 0 32 32" fill="none" xmlns="http://www.w3.org/2000/svg">
<g clip-path="url(#clip0_92829_581)">
<path fill-rule="evenodd" clip-rule="evenodd" d="M21.617 1.07612C21.7998 1.00041 22.0009 0.98062 22.1949 1.01925C22.3889 1.05787 22.5672 1.15318 22.707 1.29312C23.616 2.20112 24.804 4.17112 25.766 7.21112C26.737 10.2801 27.5 14.5081 27.5 20.0001C27.5 20.2653 27.3946 20.5197 27.2071 20.7072C27.0196 20.8948 26.7652 21.0001 26.5 21.0001H23V30.0001C23 30.2653 22.8946 30.5197 22.7071 30.7072C22.5196 30.8948 22.2652 31.0001 22 31.0001C21.7348 31.0001 21.4804 30.8948 21.2929 30.7072C21.1054 30.5197 21 30.2653 21 30.0001V2.00012C21 1.80235 21.0585 1.60901 21.1684 1.44454C21.2782 1.28007 21.4343 1.15186 21.617 1.07612ZM23 19.0001H25.491C25.405 14.1841 24.705 10.4881 23.859 7.81412C23.581 6.93412 23.289 6.17112 23 5.51912V19.0001ZM9 1.00012C9.26522 1.00012 9.51957 1.10547 9.70711 1.29301C9.89464 1.48055 10 1.7349 10 2.00012V30.0001C10 30.2653 9.89464 30.5197 9.70711 30.7072C9.51957 30.8948 9.26522 31.0001 9 31.0001C8.73478 31.0001 8.48043 30.8948 8.29289 30.7072C8.10536 30.5197 8 30.2653 8 30.0001V2.00012C8 1.7349 8.10536 1.48055 8.29289 1.29301C8.48043 1.10547 8.73478 1.00012 9 1.00012Z" fill="white"/>
<path fill-rule="evenodd" clip-rule="evenodd" d="M4.5 1C4.76522 1 5.01957 1.10536 5.20711 1.29289C5.39464 1.48043 5.5 1.73478 5.5 2V7.5C5.5 8.057 5.692 8.815 6.2 9.417C6.68 9.983 7.515 10.5 9 10.5C9.26522 10.5 9.51957 10.6054 9.70711 10.7929C9.89464 10.9804 10 11.2348 10 11.5C10 11.7652 9.89464 12.0196 9.70711 12.2071C9.51957 12.3946 9.26522 12.5 9 12.5C6.985 12.5 5.57 11.767 4.674 10.708C3.92321 9.80675 3.50829 8.67297 3.5 7.5V2C3.5 1.73478 3.60536 1.48043 3.79289 1.29289C3.98043 1.10536 4.23478 1 4.5 1Z" fill="white"/>
<path fill-rule="evenodd" clip-rule="evenodd" d="M13.5 1C13.2348 1 12.9804 1.10536 12.7929 1.29289C12.6054 1.48043 12.5 1.73478 12.5 2V7.5C12.4921 8.20013 12.2451 8.87652 11.8 9.417C11.32 9.983 10.484 10.5 9 10.5C8.73478 10.5 8.48043 10.6054 8.29289 10.7929C8.10536 10.9804 8 11.2348 8 11.5C8 11.7652 8.10536 12.0196 8.29289 12.2071C8.48043 12.3946 8.73478 12.5 9 12.5C11.014 12.5 12.43 11.767 13.326 10.708C14.0768 9.80675 14.4917 8.67297 14.5 7.5V2C14.5 1.73478 14.3946 1.48043 14.2071 1.29289C14.0196 1.10536 13.7652 1 13.5 1Z" fill="white"/>
</g>
<defs>
<clipPath id="clip0_92829_581">
<rect width="25" height="30" fill="white" transform="translate(3 1)"/>
</clipPath>
</defs>
</svg>
