<svg width="32" height="32" viewBox="0 0 32 32" fill="none" xmlns="http://www.w3.org/2000/svg">
<g clip-path="url(#clip0_92829_586)">
<mask id="mask0_92829_586" style="mask-type:luminance" maskUnits="userSpaceOnUse" x="1" y="0" width="30" height="32">
<path d="M1 0H31V32H1V0Z" fill="white"/>
</mask>
<g mask="url(#mask0_92829_586)">
<path d="M28.775 2.767C28.675 2.317 28.296 2 27.865 2H27.859C22.921 2.033 10.913 2.916 6.06499 10.38C3.54699 14.258 3.33099 19.293 5.42099 25.345C5.43699 25.392 5.47099 25.424 5.49099 25.467C4.74399 27.44 4.45499 28.753 4.44699 28.79C4.33799 29.33 4.66199 29.862 5.16799 29.978C5.23261 29.9927 5.2987 30.0001 5.36499 30C5.79699 30 6.18599 29.679 6.28099 29.21C6.30099 29.108 8.68899 18.837 17.134 12.832C17.566 12.526 17.682 11.905 17.394 11.445C17.106 10.985 16.525 10.86 16.094 11.168C11.305 14.573 8.35599 19.176 6.62099 22.824C5.38099 18.246 5.70499 14.447 7.60799 11.519C11.35 5.755 20.23 4.365 25.59 4.071C24.437 5.872 23.177 9.174 23.177 15C23.177 18.12 22.347 20.522 20.712 22.14C18.091 24.731 13.832 24.974 10.718 24.724C10.201 24.679 9.75199 25.095 9.71199 25.646C9.67199 26.196 10.06 26.676 10.576 26.718C11.199 26.769 11.865 26.8 12.556 26.8C15.727 26.8 19.426 26.137 21.986 23.606C24.02 21.595 25.052 18.7 25.052 15.001C25.052 5.902 28.267 3.905 28.283 3.896C28.673 3.687 28.878 3.219 28.775 2.767Z" fill="white"/>
</g>
</g>
<defs>
<clipPath id="clip0_92829_586">
<rect width="30" height="32" fill="white" transform="translate(1)"/>
</clipPath>
</defs>
</svg>
