<svg width="32" height="32" viewBox="0 0 32 32" fill="none" xmlns="http://www.w3.org/2000/svg">
<g clip-path="url(#clip0_92829_584)">
<path d="M8.53 0C7.47 0 7.47 1.593 8.53 1.593H15.166V3.207C8.372 3.642 3 9.47 3 16.585C3 20.62 4.741 24.262 7.49 26.715C7.968 27.139 8.032 27.893 7.597 28.36L6.067 29.92C5.325 30.61 6.429 31.683 7.097 30.93L9.093 28.88C9.443 28.54 9.963 28.456 10.399 28.668C12.1153 29.517 14.0024 29.964 15.9171 29.9751C17.8319 29.9862 19.724 29.5611 21.45 28.732C21.6612 28.6286 21.8993 28.5934 22.1313 28.6314C22.3634 28.6694 22.5778 28.7787 22.745 28.944L24.677 30.929C25.357 31.567 26.333 30.611 25.717 29.921L24.274 28.434C23.828 27.978 23.892 27.224 24.38 26.788C25.8287 25.5111 26.9874 23.939 27.7784 22.1773C28.5694 20.4156 28.9743 18.5051 28.966 16.574C28.966 9.46 23.563 3.621 16.758 3.207V1.593H23.393C24.454 1.593 24.454 0 23.393 0H8.53ZM4.434 16.574C4.434 10.002 9.604 4.682 15.984 4.682C22.354 4.682 27.524 10.002 27.524 16.574C27.524 23.157 22.354 28.487 15.984 28.487C9.614 28.487 4.434 23.157 4.434 16.574ZM15.176 8.43C15.176 7.326 16.832 7.326 16.832 8.43V17.116C16.832 17.3413 16.7426 17.5573 16.5834 17.7167C16.4242 17.8761 16.2083 17.9657 15.983 17.966C15.7707 17.966 15.5669 17.8824 15.4159 17.7332C15.2648 17.584 15.1786 17.3813 15.176 17.169V8.43ZM10.208 11.064C10.515 11.064 10.8094 10.942 11.0265 10.725C11.2435 10.5079 11.3655 10.2135 11.3655 9.9065C11.3655 9.59951 11.2435 9.3051 11.0265 9.08802C10.8094 8.87095 10.515 8.749 10.208 8.749C9.92099 8.77577 9.65431 8.90871 9.46018 9.12179C9.26605 9.33487 9.15845 9.61275 9.15845 9.901C9.15845 10.1893 9.26605 10.4671 9.46018 10.6802C9.65431 10.8933 9.92099 11.0262 10.208 11.053V11.063V11.064ZM21.748 11.064C22.055 11.064 22.3494 10.942 22.5665 10.725C22.7836 10.5079 22.9055 10.2135 22.9055 9.9065C22.9055 9.59951 22.7836 9.3051 22.5665 9.08802C22.3494 8.87095 22.055 8.749 21.748 8.749C21.461 8.77577 21.1943 8.90871 21.0002 9.12179C20.806 9.33487 20.6984 9.61275 20.6984 9.901C20.6984 10.1893 20.806 10.4671 21.0002 10.6802C21.1943 10.8933 21.461 11.0262 21.748 11.053V11.063V11.064ZM11.364 23.73C11.364 25.27 9.05 25.27 9.05 23.73C9.05 22.19 11.364 22.19 11.364 23.73ZM15.982 27.191C16.1348 27.2086 16.2895 27.1956 16.4372 27.1527C16.5849 27.1098 16.7226 27.0378 16.8421 26.9411C16.9617 26.8444 17.0608 26.7248 17.1336 26.5893C17.2064 26.4538 17.2515 26.3052 17.2662 26.1521C17.2809 25.999 17.2649 25.8445 17.2192 25.6977C17.1735 25.5509 17.0989 25.4146 16.9999 25.2969C16.9009 25.1792 16.7795 25.0824 16.6426 25.0122C16.5058 24.942 16.3563 24.8998 16.203 24.888C15.9009 24.8648 15.6017 24.9611 15.3697 25.1561C15.1378 25.3512 14.9917 25.6294 14.9627 25.9311C14.9338 26.2327 15.0244 26.5337 15.2149 26.7693C15.4055 27.0049 15.681 27.1563 15.982 27.191ZM7.904 16.744C7.91858 16.8953 7.90321 17.048 7.85879 17.1933C7.81436 17.3386 7.74174 17.4738 7.64508 17.5911C7.54841 17.7084 7.42959 17.8055 7.2954 17.8768C7.16121 17.9482 7.01428 17.9924 6.863 18.007C6.71172 18.0216 6.55904 18.0062 6.4137 17.9618C6.26835 17.9174 6.13318 17.8447 6.0159 17.7481C5.89862 17.6514 5.80153 17.5326 5.73017 17.3984C5.65881 17.2642 5.61458 17.1173 5.6 16.966C5.57056 16.6605 5.6637 16.3558 5.85892 16.1189C6.05415 15.882 6.33547 15.7324 6.641 15.703C6.94653 15.6736 7.25124 15.7667 7.4881 15.9619C7.72496 16.1571 7.87456 16.4385 7.904 16.744ZM25.208 17.901C25.3608 17.9186 25.5155 17.9056 25.6632 17.8627C25.8109 17.8198 25.9486 17.7478 26.0681 17.6511C26.1877 17.5544 26.2868 17.4348 26.3596 17.2993C26.4324 17.1638 26.4775 17.0152 26.4922 16.8621C26.5069 16.709 26.4909 16.5545 26.4452 16.4077C26.3995 16.2609 26.3249 16.1246 26.2259 16.0069C26.1269 15.8892 26.0055 15.7924 25.8686 15.7222C25.7318 15.652 25.5823 15.6098 25.429 15.598C25.1272 15.5756 24.8286 15.6723 24.5973 15.8674C24.366 16.0626 24.2203 16.3405 24.1916 16.6418C24.1628 16.9431 24.2532 17.2436 24.4434 17.479C24.6336 17.7144 24.9074 17.8659 25.208 17.901ZM22.905 23.741C22.905 25.271 20.59 25.271 20.59 23.731C20.59 22.191 22.904 22.191 22.904 23.731V23.741H22.905Z" fill="white"/>
</g>
<defs>
<clipPath id="clip0_92829_584">
<rect width="26" height="32" fill="white" transform="translate(3)"/>
</clipPath>
</defs>
</svg>
