<svg width="32" height="32" viewBox="0 0 32 32" fill="none" xmlns="http://www.w3.org/2000/svg">
<g clip-path="url(#clip0_92829_585)">
<path d="M13.86 1C12.233 1 10.966 2.368 10.966 4.1C10.966 5.832 12.233 7.2 13.862 7.2C15.491 7.2 16.758 5.832 16.758 4.1C16.758 2.368 15.49 1 13.861 1H13.86ZM13.86 2.185C14.856 2.185 15.58 3.033 15.58 4.1C15.58 5.103 14.793 6.014 13.86 6.014C12.865 6.014 12.141 5.167 12.141 4.1C12.141 3.097 12.92 2.185 13.861 2.185H13.86ZM3 25.89C3 27.075 3.407 28.078 4.358 28.899C5.353 29.756 6.53 29.683 6.53 29.683H25.536C26.315 29.683 27.346 29.3 28.161 28.224C29.003 27.221 28.948 25.854 28.948 25.854V8.53C28.948 8.092 28.84 7.928 28.206 7.928C27.573 7.928 27.518 8.202 27.518 8.521V25.843C27.5 26.144 27.446 26.938 26.776 27.576C26.043 28.205 25.328 28.123 25.328 28.123C25.328 28.123 7.227 28.123 6.322 28.095C5.978 28.031 5.417 27.904 4.873 27.184C4.367 26.454 4.466 25.543 4.466 25.543V8.22C4.466 7.755 4.231 7.582 3.742 7.582C3.253 7.582 3 7.756 3 8.166V25.89ZM19.291 9.479C18.205 9.716 17.119 9.862 15.037 11.849C12.956 13.855 11.417 13.764 9.879 13.673C8.339 13.582 6.711 12.123 6.439 11.758C6.104 11.403 5.534 11.64 5.353 11.877C5.199 12.114 5.199 12.524 5.462 12.88C6.729 14.065 7.905 14.977 10.168 15.159C12.431 15.378 14.603 14.348 16.051 12.879C17.499 11.421 18.223 11.148 19.309 10.965C21.934 10.545 23.473 11.585 24.378 12.242C25.373 13.336 25.645 13.026 25.916 12.716C26.459 11.996 25.69 11.439 24.83 10.801C23.02 9.616 21.3 9.16 19.31 9.525L19.291 9.479ZM10.241 16.682C9.064 16.682 8.159 17.684 8.159 18.961C8.159 20.237 9.064 21.241 10.241 21.241C11.417 21.241 12.322 20.237 12.322 18.961C12.322 17.685 11.417 16.681 10.241 16.681V16.682ZM22.006 17.466C20.468 17.466 19.201 18.833 19.201 20.474C19.201 22.116 20.468 23.483 22.006 23.483C23.546 23.483 24.812 22.116 24.812 20.474C24.812 18.834 23.545 17.466 22.006 17.466ZM22.006 18.924C22.803 18.924 23.455 19.627 23.455 20.474C23.455 21.34 22.803 22.024 22.007 22.024C21.21 22.024 20.558 21.322 20.558 20.474C20.558 19.608 21.21 18.924 22.006 18.924Z" fill="white"/>
</g>
<defs>
<clipPath id="clip0_92829_585">
<rect width="26" height="29" fill="white" transform="translate(3 1)"/>
</clipPath>
</defs>
</svg>
