<?xml version="1.0" standalone="no"?>
<!DOCTYPE svg PUBLIC "-//W3C//DTD SVG 20010904//EN"
 "http://www.w3.org/TR/2001/REC-SVG-20010904/DTD/svg10.dtd">
<svg version="1.0" xmlns="http://www.w3.org/2000/svg"
 width="608.000000pt" height="608.000000pt" viewBox="0 0 608.000000 608.000000"
 preserveAspectRatio="xMidYMid meet">
<metadata>
Created by potrace 1.14, written by Peter Selinger 2001-2017
</metadata>
<g transform="translate(0.000000,608.000000) scale(0.100000,-0.100000)"
fill="#000000" stroke="none">
<path d="M4232 6049 c-34 -37 -141 -297 -158 -384 -1 -5 -10 -39 -19 -75 -9
-36 -22 -96 -29 -135 l-12 -70 -84 1 c-47 1 -195 5 -330 9 -135 4 -251 7 -257
6 -20 -2 -43 -2 -118 -2 -117 1 -404 -7 -510 -14 -55 -4 -127 -8 -160 -10 -33
-2 -89 -7 -125 -10 -36 -3 -90 -8 -121 -10 -79 -5 -232 -22 -290 -31 -25 -4
-28 1 -59 89 -38 107 -71 178 -119 262 -34 59 -114 163 -138 178 -7 4 -18 13
-25 21 -17 17 -55 37 -87 46 -51 14 -105 -36 -117 -109 -3 -14 -10 -43 -15
-64 -6 -22 -12 -60 -15 -85 -2 -26 -6 -63 -9 -82 -6 -49 -13 -249 -20 -570
-14 -617 -10 -552 -36 -573 -171 -135 -341 -322 -510 -557 -77 -107 -229 -382
-229 -414 0 -9 -4 -16 -10 -16 -5 0 -15 -19 -21 -42 -7 -24 -16 -47 -20 -53
-21 -30 -118 -347 -135 -445 -9 -51 -11 -59 -14 -62 -5 -7 -5 -60 0 -63 3 -2
70 -6 150 -10 80 -4 163 -9 185 -10 22 -2 87 -6 145 -9 111 -6 107 -4 152 -67
78 -107 128 -173 165 -215 10 -12 38 -46 63 -75 94 -112 329 -337 471 -451
111 -89 357 -258 375 -258 7 0 14 -4 16 -8 7 -18 261 -151 403 -212 55 -23
109 -46 120 -51 11 -5 71 -27 134 -48 121 -42 116 -42 206 0 84 39 342 208
460 301 6 4 57 44 115 88 121 92 128 97 234 193 228 205 385 363 681 681 11
11 49 55 85 96 36 41 68 77 71 80 40 36 179 282 179 318 0 13 104 51 260 93
25 7 50 14 55 15 25 8 182 46 205 50 14 2 49 9 77 15 l53 10 -16 37 c-9 20
-21 51 -26 67 -16 44 -167 337 -183 356 -8 8 -15 20 -15 26 0 6 -3 13 -7 15
-5 1 -35 43 -68 92 -33 49 -64 94 -70 100 -5 6 -32 38 -60 71 -60 72 -53 65
-140 156 -39 41 -105 103 -145 139 -41 36 -77 68 -80 71 -3 3 -42 33 -87 68
-59 43 -83 68 -84 84 0 12 -2 38 -4 57 -6 76 -16 177 -20 210 -2 19 -7 64 -10
100 -3 36 -7 74 -9 85 -2 11 -7 56 -11 100 -3 43 -8 82 -10 85 -1 3 -6 34 -10
70 -8 76 -11 100 -19 155 -13 93 -19 131 -22 150 -2 10 -6 37 -9 60 -3 22 -12
78 -20 125 -8 47 -17 103 -20 125 -12 88 -28 136 -48 150 -31 21 -42 19 -75
-16z m323 -2883 l-4 -147 -238 -237 c-240 -239 -273 -274 -416 -437 -44 -49
-93 -106 -111 -126 -17 -19 -53 -62 -81 -94 -91 -107 -307 -328 -416 -426 -15
-13 -42 -38 -62 -56 -19 -17 -97 -81 -173 -142 -131 -107 -138 -111 -149 -90
-20 37 -107 119 -205 192 -52 40 -96 75 -98 80 -2 4 -8 7 -13 7 -8 0 -71 45
-122 86 -9 8 -22 14 -27 14 -6 0 -10 4 -10 9 0 5 -8 12 -17 15 -10 4 -34 20
-53 36 -57 48 -59 50 -64 50 -9 0 -340 255 -436 336 -130 110 -319 290 -441
420 l-57 60 2 189 1 189 35 7 c19 4 62 10 96 14 33 3 71 8 85 10 13 2 44 6 69
9 55 6 136 16 170 22 14 2 57 6 95 10 39 3 78 8 88 10 10 2 46 6 80 9 34 4 80
8 102 11 22 2 67 6 100 9 33 4 80 8 105 11 47 5 94 8 225 19 44 3 107 8 140
11 89 8 211 16 445 30 139 8 204 11 410 19 102 4 186 7 187 8 1 1 173 4 382 5
l381 4 -5 -146z"/>
<path d="M3058 3145 c-2 -2 -21 -6 -42 -9 -57 -9 -125 -42 -152 -73 -12 -15
-21 -29 -20 -32 2 -3 0 -15 -4 -26 -13 -34 21 -81 86 -122 43 -28 117 -63 131
-63 26 0 100 58 136 107 35 48 42 65 51 116 6 36 -34 85 -77 91 -53 9 -106 14
-109 11z"/>
<path d="M3414 2678 c-16 -24 -34 -49 -41 -55 -6 -7 -20 -23 -30 -35 -56 -68
-149 -96 -212 -64 -36 19 -74 59 -107 113 -20 34 -23 36 -30 18 -30 -77 -160
-166 -252 -170 -87 -5 -204 55 -301 152 -49 50 -66 61 -77 53 -11 -10 -9 -18
11 -50 13 -21 22 -40 19 -42 -2 -3 2 -24 10 -47 9 -23 15 -42 14 -44 -4 -7 27
-116 39 -139 7 -16 11 -28 9 -28 -3 0 7 -28 20 -62 118 -297 230 -414 412
-433 93 -9 141 12 203 92 33 42 50 177 35 278 -13 83 -19 112 -27 128 -5 9 -8
17 -5 17 3 0 -8 32 -25 71 -34 83 -36 98 -11 76 28 -26 93 -49 134 -49 20 0
55 10 78 22 49 25 138 110 166 158 10 17 22 32 26 32 15 0 8 38 -8 44 -9 3
-17 6 -18 6 -2 0 -16 -19 -32 -42z"/>
<path d="M5595 2842 c-48 -27 -336 -222 -352 -238 -8 -7 -18 -14 -21 -14 -4 0
-18 -10 -32 -22 -14 -13 -50 -42 -80 -65 -30 -23 -67 -52 -82 -65 -15 -13 -37
-30 -48 -40 -88 -68 -308 -279 -385 -368 -54 -64 -83 -134 -92 -227 -10 -103
-9 -1673 1 -1673 11 0 180 127 246 185 56 50 223 217 270 270 68 78 230 295
230 309 0 3 14 25 30 49 17 25 30 49 30 55 0 6 4 12 8 14 11 4 93 165 138 269
32 75 100 260 110 299 2 8 10 40 19 70 8 30 17 69 20 85 3 17 10 46 15 65 16
61 34 178 48 305 9 91 8 433 -2 510 -4 33 -9 76 -12 95 -6 57 -22 141 -26 146
-2 1 -17 -5 -33 -14z"/>
<path d="M405 2177 c3 -45 7 -98 10 -117 2 -19 7 -57 11 -84 3 -27 7 -56 9
-65 2 -9 13 -61 25 -116 11 -55 23 -111 26 -124 3 -14 21 -73 40 -133 141
-437 368 -806 685 -1115 93 -90 220 -198 289 -246 25 -17 47 -34 50 -37 3 -4
41 -28 85 -55 44 -26 92 -56 108 -67 31 -22 32 -20 17 65 -6 31 -13 69 -15 84
-2 15 -8 44 -13 63 -5 19 -9 37 -9 40 -4 28 -16 94 -23 130 -6 25 -12 57 -15
72 -3 16 -8 40 -11 55 -3 16 -7 35 -8 43 -2 15 -7 38 -31 165 -8 39 -16 84
-19 100 -3 17 -10 55 -16 85 -6 30 -13 66 -16 80 -3 14 -9 50 -15 80 -6 30
-12 66 -15 80 -2 14 -7 36 -9 50 -3 14 -8 39 -11 55 -3 17 -12 64 -21 105 -8
41 -17 89 -20 105 -3 26 -25 136 -39 200 -2 11 -6 35 -9 53 -2 18 -6 36 -9 40
-2 4 -7 31 -11 61 -11 88 -15 93 -101 126 -44 16 -81 30 -84 31 -3 0 -18 6
-35 13 -16 7 -34 14 -40 15 -5 2 -23 8 -40 15 -42 18 -251 93 -375 136 -133
45 -275 86 -318 91 l-33 3 6 -82z"/>
</g>
</svg>
